<mxfile host="app.diagrams.net" modified="2022-03-25T01:53:22.242Z" agent="5.0 (Macintosh; Intel Mac OS X 10_15_7) AppleWebKit/537.36 (KHTML, like Gecko) Chrome/99.0.4844.83 Safari/537.36" etag="ciu5Qzplkri77YBBZcpC" version="17.2.1" type="github">
  <diagram id="IDi-bsRpjTARj6v3DzdU" name="Page-1">
    <mxGraphModel dx="946" dy="614" grid="1" gridSize="10" guides="1" tooltips="1" connect="1" arrows="1" fold="1" page="1" pageScale="1" pageWidth="827" pageHeight="1169" math="0" shadow="0">
      <root>
        <mxCell id="0" />
        <mxCell id="1" parent="0" />
        <mxCell id="TZKJ0TVQ96JsH3nUPFEi-6" style="edgeStyle=orthogonalEdgeStyle;rounded=0;orthogonalLoop=1;jettySize=auto;html=1;entryX=1;entryY=0.5;entryDx=0;entryDy=0;endArrow=none;endFill=0;" edge="1" parent="1" source="TZKJ0TVQ96JsH3nUPFEi-1" target="TZKJ0TVQ96JsH3nUPFEi-5">
          <mxGeometry relative="1" as="geometry" />
        </mxCell>
        <mxCell id="TZKJ0TVQ96JsH3nUPFEi-8" value="1" style="edgeLabel;html=1;align=center;verticalAlign=middle;resizable=0;points=[];" vertex="1" connectable="0" parent="TZKJ0TVQ96JsH3nUPFEi-6">
          <mxGeometry x="0.28" relative="1" as="geometry">
            <mxPoint as="offset" />
          </mxGeometry>
        </mxCell>
        <mxCell id="TZKJ0TVQ96JsH3nUPFEi-20" value="n" style="edgeStyle=orthogonalEdgeStyle;rounded=0;orthogonalLoop=1;jettySize=auto;html=1;entryX=0;entryY=0.5;entryDx=0;entryDy=0;endArrow=none;endFill=0;" edge="1" parent="1" source="TZKJ0TVQ96JsH3nUPFEi-1" target="TZKJ0TVQ96JsH3nUPFEi-19">
          <mxGeometry relative="1" as="geometry" />
        </mxCell>
        <mxCell id="TZKJ0TVQ96JsH3nUPFEi-1" value="教师" style="rounded=0;whiteSpace=wrap;html=1;" vertex="1" parent="1">
          <mxGeometry x="290" y="400" width="80" height="40" as="geometry" />
        </mxCell>
        <mxCell id="TZKJ0TVQ96JsH3nUPFEi-11" style="edgeStyle=orthogonalEdgeStyle;rounded=0;orthogonalLoop=1;jettySize=auto;html=1;entryX=1;entryY=0.5;entryDx=0;entryDy=0;endArrow=none;endFill=0;" edge="1" parent="1" source="TZKJ0TVQ96JsH3nUPFEi-2" target="TZKJ0TVQ96JsH3nUPFEi-10">
          <mxGeometry relative="1" as="geometry" />
        </mxCell>
        <mxCell id="TZKJ0TVQ96JsH3nUPFEi-13" value="1" style="edgeLabel;html=1;align=center;verticalAlign=middle;resizable=0;points=[];" vertex="1" connectable="0" parent="TZKJ0TVQ96JsH3nUPFEi-11">
          <mxGeometry x="0.52" y="-2" relative="1" as="geometry">
            <mxPoint as="offset" />
          </mxGeometry>
        </mxCell>
        <mxCell id="TZKJ0TVQ96JsH3nUPFEi-16" value="1" style="edgeStyle=orthogonalEdgeStyle;rounded=0;orthogonalLoop=1;jettySize=auto;html=1;entryX=0;entryY=0.5;entryDx=0;entryDy=0;endArrow=none;endFill=0;" edge="1" parent="1" source="TZKJ0TVQ96JsH3nUPFEi-2" target="TZKJ0TVQ96JsH3nUPFEi-15">
          <mxGeometry relative="1" as="geometry" />
        </mxCell>
        <mxCell id="TZKJ0TVQ96JsH3nUPFEi-2" value="学生" style="rounded=0;whiteSpace=wrap;html=1;" vertex="1" parent="1">
          <mxGeometry x="290" y="110" width="80" height="40" as="geometry" />
        </mxCell>
        <mxCell id="TZKJ0TVQ96JsH3nUPFEi-3" value="教学记录" style="rounded=0;whiteSpace=wrap;html=1;" vertex="1" parent="1">
          <mxGeometry x="550" y="260" width="80" height="40" as="geometry" />
        </mxCell>
        <mxCell id="TZKJ0TVQ96JsH3nUPFEi-24" style="edgeStyle=none;rounded=0;orthogonalLoop=1;jettySize=auto;html=1;exitX=1;exitY=0.5;exitDx=0;exitDy=0;entryX=0;entryY=0.5;entryDx=0;entryDy=0;endArrow=none;endFill=0;" edge="1" parent="1" target="TZKJ0TVQ96JsH3nUPFEi-22">
          <mxGeometry relative="1" as="geometry">
            <mxPoint x="110" y="280" as="sourcePoint" />
          </mxGeometry>
        </mxCell>
        <mxCell id="TZKJ0TVQ96JsH3nUPFEi-25" value="1" style="edgeLabel;html=1;align=center;verticalAlign=middle;resizable=0;points=[];" vertex="1" connectable="0" parent="TZKJ0TVQ96JsH3nUPFEi-24">
          <mxGeometry x="-0.0769" y="1" relative="1" as="geometry">
            <mxPoint as="offset" />
          </mxGeometry>
        </mxCell>
        <mxCell id="TZKJ0TVQ96JsH3nUPFEi-4" value="班级" style="rounded=0;whiteSpace=wrap;html=1;dashed=1;" vertex="1" parent="1">
          <mxGeometry x="30" y="240" width="80" height="40" as="geometry" />
        </mxCell>
        <mxCell id="TZKJ0TVQ96JsH3nUPFEi-7" style="edgeStyle=orthogonalEdgeStyle;rounded=0;orthogonalLoop=1;jettySize=auto;html=1;entryX=0.5;entryY=1;entryDx=0;entryDy=0;endArrow=none;endFill=0;exitX=0;exitY=0.5;exitDx=0;exitDy=0;" edge="1" parent="1" source="TZKJ0TVQ96JsH3nUPFEi-5">
          <mxGeometry relative="1" as="geometry">
            <mxPoint x="70" y="300" as="targetPoint" />
          </mxGeometry>
        </mxCell>
        <mxCell id="TZKJ0TVQ96JsH3nUPFEi-9" value="n" style="edgeLabel;html=1;align=center;verticalAlign=middle;resizable=0;points=[];" vertex="1" connectable="0" parent="TZKJ0TVQ96JsH3nUPFEi-7">
          <mxGeometry y="-2" relative="1" as="geometry">
            <mxPoint as="offset" />
          </mxGeometry>
        </mxCell>
        <mxCell id="TZKJ0TVQ96JsH3nUPFEi-5" value="负责" style="rhombus;whiteSpace=wrap;html=1;" vertex="1" parent="1">
          <mxGeometry x="110" y="400" width="80" height="40" as="geometry" />
        </mxCell>
        <mxCell id="TZKJ0TVQ96JsH3nUPFEi-12" style="edgeStyle=orthogonalEdgeStyle;rounded=0;orthogonalLoop=1;jettySize=auto;html=1;entryX=0.5;entryY=0;entryDx=0;entryDy=0;endArrow=none;endFill=0;exitX=0;exitY=0.5;exitDx=0;exitDy=0;" edge="1" parent="1" source="TZKJ0TVQ96JsH3nUPFEi-10">
          <mxGeometry relative="1" as="geometry">
            <mxPoint x="70" y="260" as="targetPoint" />
          </mxGeometry>
        </mxCell>
        <mxCell id="TZKJ0TVQ96JsH3nUPFEi-14" value="1" style="edgeLabel;html=1;align=center;verticalAlign=middle;resizable=0;points=[];" vertex="1" connectable="0" parent="TZKJ0TVQ96JsH3nUPFEi-12">
          <mxGeometry x="-0.1" y="2" relative="1" as="geometry">
            <mxPoint as="offset" />
          </mxGeometry>
        </mxCell>
        <mxCell id="TZKJ0TVQ96JsH3nUPFEi-10" value="属于" style="rhombus;whiteSpace=wrap;html=1;" vertex="1" parent="1">
          <mxGeometry x="110" y="110" width="80" height="40" as="geometry" />
        </mxCell>
        <mxCell id="TZKJ0TVQ96JsH3nUPFEi-17" style="edgeStyle=orthogonalEdgeStyle;rounded=0;orthogonalLoop=1;jettySize=auto;html=1;entryX=0.5;entryY=0;entryDx=0;entryDy=0;endArrow=none;endFill=0;exitX=1;exitY=0.5;exitDx=0;exitDy=0;" edge="1" parent="1" source="TZKJ0TVQ96JsH3nUPFEi-15" target="TZKJ0TVQ96JsH3nUPFEi-3">
          <mxGeometry relative="1" as="geometry" />
        </mxCell>
        <mxCell id="TZKJ0TVQ96JsH3nUPFEi-18" value="n" style="edgeLabel;html=1;align=center;verticalAlign=middle;resizable=0;points=[];" vertex="1" connectable="0" parent="TZKJ0TVQ96JsH3nUPFEi-17">
          <mxGeometry x="-0.25" y="-3" relative="1" as="geometry">
            <mxPoint as="offset" />
          </mxGeometry>
        </mxCell>
        <mxCell id="TZKJ0TVQ96JsH3nUPFEi-15" value="查看" style="rhombus;whiteSpace=wrap;html=1;" vertex="1" parent="1">
          <mxGeometry x="470" y="110" width="80" height="40" as="geometry" />
        </mxCell>
        <mxCell id="TZKJ0TVQ96JsH3nUPFEi-21" value="n" style="edgeStyle=orthogonalEdgeStyle;rounded=0;orthogonalLoop=1;jettySize=auto;html=1;entryX=0.5;entryY=1;entryDx=0;entryDy=0;endArrow=none;endFill=0;exitX=1;exitY=0.5;exitDx=0;exitDy=0;" edge="1" parent="1" source="TZKJ0TVQ96JsH3nUPFEi-19" target="TZKJ0TVQ96JsH3nUPFEi-3">
          <mxGeometry relative="1" as="geometry" />
        </mxCell>
        <mxCell id="TZKJ0TVQ96JsH3nUPFEi-19" value="管理" style="rhombus;whiteSpace=wrap;html=1;" vertex="1" parent="1">
          <mxGeometry x="470" y="400" width="80" height="40" as="geometry" />
        </mxCell>
        <mxCell id="TZKJ0TVQ96JsH3nUPFEi-23" style="rounded=0;orthogonalLoop=1;jettySize=auto;html=1;entryX=0;entryY=0.5;entryDx=0;entryDy=0;endArrow=none;endFill=0;exitX=1;exitY=0.5;exitDx=0;exitDy=0;" edge="1" parent="1" source="TZKJ0TVQ96JsH3nUPFEi-22" target="TZKJ0TVQ96JsH3nUPFEi-3">
          <mxGeometry relative="1" as="geometry" />
        </mxCell>
        <mxCell id="TZKJ0TVQ96JsH3nUPFEi-26" value="1" style="edgeLabel;html=1;align=center;verticalAlign=middle;resizable=0;points=[];" vertex="1" connectable="0" parent="TZKJ0TVQ96JsH3nUPFEi-23">
          <mxGeometry x="0.21" y="1" relative="1" as="geometry">
            <mxPoint as="offset" />
          </mxGeometry>
        </mxCell>
        <mxCell id="TZKJ0TVQ96JsH3nUPFEi-22" value="对应" style="rhombus;whiteSpace=wrap;html=1;" vertex="1" parent="1">
          <mxGeometry x="290" y="260" width="80" height="40" as="geometry" />
        </mxCell>
        <mxCell id="TZKJ0TVQ96JsH3nUPFEi-35" style="edgeStyle=none;rounded=0;orthogonalLoop=1;jettySize=auto;html=1;exitX=0.5;exitY=1;exitDx=0;exitDy=0;entryX=0.5;entryY=0;entryDx=0;entryDy=0;endArrow=none;endFill=0;" edge="1" parent="1" source="TZKJ0TVQ96JsH3nUPFEi-28" target="TZKJ0TVQ96JsH3nUPFEi-2">
          <mxGeometry relative="1" as="geometry" />
        </mxCell>
        <mxCell id="TZKJ0TVQ96JsH3nUPFEi-28" value="名称" style="ellipse;whiteSpace=wrap;html=1;" vertex="1" parent="1">
          <mxGeometry x="125" y="40" width="60" height="30" as="geometry" />
        </mxCell>
        <mxCell id="TZKJ0TVQ96JsH3nUPFEi-36" style="edgeStyle=none;rounded=0;orthogonalLoop=1;jettySize=auto;html=1;exitX=0.5;exitY=1;exitDx=0;exitDy=0;entryX=0.5;entryY=0;entryDx=0;entryDy=0;endArrow=none;endFill=0;" edge="1" parent="1" source="TZKJ0TVQ96JsH3nUPFEi-29" target="TZKJ0TVQ96JsH3nUPFEi-2">
          <mxGeometry relative="1" as="geometry" />
        </mxCell>
        <mxCell id="TZKJ0TVQ96JsH3nUPFEi-29" value="邮箱" style="ellipse;whiteSpace=wrap;html=1;" vertex="1" parent="1">
          <mxGeometry x="195" y="40" width="60" height="30" as="geometry" />
        </mxCell>
        <mxCell id="TZKJ0TVQ96JsH3nUPFEi-37" style="edgeStyle=none;rounded=0;orthogonalLoop=1;jettySize=auto;html=1;exitX=0.5;exitY=1;exitDx=0;exitDy=0;entryX=0.5;entryY=0;entryDx=0;entryDy=0;endArrow=none;endFill=0;" edge="1" parent="1" source="TZKJ0TVQ96JsH3nUPFEi-30" target="TZKJ0TVQ96JsH3nUPFEi-2">
          <mxGeometry relative="1" as="geometry" />
        </mxCell>
        <mxCell id="TZKJ0TVQ96JsH3nUPFEi-30" value="简介" style="ellipse;whiteSpace=wrap;html=1;" vertex="1" parent="1">
          <mxGeometry x="265" y="40" width="60" height="30" as="geometry" />
        </mxCell>
        <mxCell id="TZKJ0TVQ96JsH3nUPFEi-38" style="edgeStyle=none;rounded=0;orthogonalLoop=1;jettySize=auto;html=1;exitX=0.5;exitY=1;exitDx=0;exitDy=0;entryX=0.5;entryY=0;entryDx=0;entryDy=0;endArrow=none;endFill=0;" edge="1" parent="1" source="TZKJ0TVQ96JsH3nUPFEi-31" target="TZKJ0TVQ96JsH3nUPFEi-2">
          <mxGeometry relative="1" as="geometry" />
        </mxCell>
        <mxCell id="TZKJ0TVQ96JsH3nUPFEi-31" value="密码" style="ellipse;whiteSpace=wrap;html=1;" vertex="1" parent="1">
          <mxGeometry x="335" y="40" width="60" height="30" as="geometry" />
        </mxCell>
        <mxCell id="TZKJ0TVQ96JsH3nUPFEi-39" style="edgeStyle=none;rounded=0;orthogonalLoop=1;jettySize=auto;html=1;exitX=0.5;exitY=1;exitDx=0;exitDy=0;endArrow=none;endFill=0;" edge="1" parent="1" source="TZKJ0TVQ96JsH3nUPFEi-32">
          <mxGeometry relative="1" as="geometry">
            <mxPoint x="330" y="110" as="targetPoint" />
          </mxGeometry>
        </mxCell>
        <mxCell id="TZKJ0TVQ96JsH3nUPFEi-32" value="头像" style="ellipse;whiteSpace=wrap;html=1;" vertex="1" parent="1">
          <mxGeometry x="405" y="40" width="60" height="30" as="geometry" />
        </mxCell>
        <mxCell id="TZKJ0TVQ96JsH3nUPFEi-40" style="edgeStyle=none;rounded=0;orthogonalLoop=1;jettySize=auto;html=1;exitX=0.5;exitY=1;exitDx=0;exitDy=0;entryX=0.5;entryY=0;entryDx=0;entryDy=0;endArrow=none;endFill=0;" edge="1" parent="1" source="TZKJ0TVQ96JsH3nUPFEi-33" target="TZKJ0TVQ96JsH3nUPFEi-2">
          <mxGeometry relative="1" as="geometry" />
        </mxCell>
        <mxCell id="TZKJ0TVQ96JsH3nUPFEi-33" value="班级" style="ellipse;whiteSpace=wrap;html=1;dashed=1;" vertex="1" parent="1">
          <mxGeometry x="475" y="40" width="60" height="30" as="geometry" />
        </mxCell>
        <mxCell id="TZKJ0TVQ96JsH3nUPFEi-50" style="edgeStyle=none;rounded=0;orthogonalLoop=1;jettySize=auto;html=1;exitX=0.5;exitY=0;exitDx=0;exitDy=0;entryX=0.5;entryY=1;entryDx=0;entryDy=0;endArrow=none;endFill=0;" edge="1" parent="1" source="TZKJ0TVQ96JsH3nUPFEi-41" target="TZKJ0TVQ96JsH3nUPFEi-1">
          <mxGeometry relative="1" as="geometry" />
        </mxCell>
        <mxCell id="TZKJ0TVQ96JsH3nUPFEi-41" value="名称" style="ellipse;whiteSpace=wrap;html=1;" vertex="1" parent="1">
          <mxGeometry x="20" y="480" width="60" height="30" as="geometry" />
        </mxCell>
        <mxCell id="TZKJ0TVQ96JsH3nUPFEi-51" style="edgeStyle=none;rounded=0;orthogonalLoop=1;jettySize=auto;html=1;exitX=0.5;exitY=0;exitDx=0;exitDy=0;endArrow=none;endFill=0;" edge="1" parent="1" source="TZKJ0TVQ96JsH3nUPFEi-42">
          <mxGeometry relative="1" as="geometry">
            <mxPoint x="330" y="440" as="targetPoint" />
          </mxGeometry>
        </mxCell>
        <mxCell id="TZKJ0TVQ96JsH3nUPFEi-42" value="邮箱" style="ellipse;whiteSpace=wrap;html=1;" vertex="1" parent="1">
          <mxGeometry x="90" y="480" width="60" height="30" as="geometry" />
        </mxCell>
        <mxCell id="TZKJ0TVQ96JsH3nUPFEi-52" style="edgeStyle=none;rounded=0;orthogonalLoop=1;jettySize=auto;html=1;exitX=0.5;exitY=0;exitDx=0;exitDy=0;endArrow=none;endFill=0;" edge="1" parent="1" source="TZKJ0TVQ96JsH3nUPFEi-43">
          <mxGeometry relative="1" as="geometry">
            <mxPoint x="330" y="440" as="targetPoint" />
          </mxGeometry>
        </mxCell>
        <mxCell id="TZKJ0TVQ96JsH3nUPFEi-43" value="简介" style="ellipse;whiteSpace=wrap;html=1;" vertex="1" parent="1">
          <mxGeometry x="160" y="480" width="60" height="30" as="geometry" />
        </mxCell>
        <mxCell id="TZKJ0TVQ96JsH3nUPFEi-56" style="edgeStyle=none;rounded=0;orthogonalLoop=1;jettySize=auto;html=1;exitX=0.5;exitY=0;exitDx=0;exitDy=0;endArrow=none;endFill=0;" edge="1" parent="1" source="TZKJ0TVQ96JsH3nUPFEi-44">
          <mxGeometry relative="1" as="geometry">
            <mxPoint x="330" y="440" as="targetPoint" />
          </mxGeometry>
        </mxCell>
        <mxCell id="TZKJ0TVQ96JsH3nUPFEi-44" value="密码" style="ellipse;whiteSpace=wrap;html=1;" vertex="1" parent="1">
          <mxGeometry x="440" y="480" width="60" height="30" as="geometry" />
        </mxCell>
        <mxCell id="TZKJ0TVQ96JsH3nUPFEi-57" style="edgeStyle=none;rounded=0;orthogonalLoop=1;jettySize=auto;html=1;exitX=0.5;exitY=0;exitDx=0;exitDy=0;endArrow=none;endFill=0;" edge="1" parent="1" source="TZKJ0TVQ96JsH3nUPFEi-45">
          <mxGeometry relative="1" as="geometry">
            <mxPoint x="330" y="440" as="targetPoint" />
          </mxGeometry>
        </mxCell>
        <mxCell id="TZKJ0TVQ96JsH3nUPFEi-45" value="头像" style="ellipse;whiteSpace=wrap;html=1;" vertex="1" parent="1">
          <mxGeometry x="510" y="480" width="60" height="30" as="geometry" />
        </mxCell>
        <mxCell id="TZKJ0TVQ96JsH3nUPFEi-58" style="edgeStyle=none;rounded=0;orthogonalLoop=1;jettySize=auto;html=1;exitX=0.5;exitY=0;exitDx=0;exitDy=0;endArrow=none;endFill=0;" edge="1" parent="1" source="TZKJ0TVQ96JsH3nUPFEi-46">
          <mxGeometry relative="1" as="geometry">
            <mxPoint x="330" y="440" as="targetPoint" />
          </mxGeometry>
        </mxCell>
        <mxCell id="TZKJ0TVQ96JsH3nUPFEi-46" value="班级" style="ellipse;whiteSpace=wrap;html=1;dashed=1;" vertex="1" parent="1">
          <mxGeometry x="580" y="480" width="60" height="30" as="geometry" />
        </mxCell>
        <mxCell id="TZKJ0TVQ96JsH3nUPFEi-53" style="edgeStyle=none;rounded=0;orthogonalLoop=1;jettySize=auto;html=1;exitX=0.5;exitY=0;exitDx=0;exitDy=0;entryX=0.5;entryY=1;entryDx=0;entryDy=0;endArrow=none;endFill=0;" edge="1" parent="1" source="TZKJ0TVQ96JsH3nUPFEi-47" target="TZKJ0TVQ96JsH3nUPFEi-1">
          <mxGeometry relative="1" as="geometry" />
        </mxCell>
        <mxCell id="TZKJ0TVQ96JsH3nUPFEi-47" value="部门" style="ellipse;whiteSpace=wrap;html=1;" vertex="1" parent="1">
          <mxGeometry x="230" y="480" width="60" height="30" as="geometry" />
        </mxCell>
        <mxCell id="TZKJ0TVQ96JsH3nUPFEi-54" style="edgeStyle=none;rounded=0;orthogonalLoop=1;jettySize=auto;html=1;exitX=0.5;exitY=0;exitDx=0;exitDy=0;endArrow=none;endFill=0;" edge="1" parent="1" source="TZKJ0TVQ96JsH3nUPFEi-48">
          <mxGeometry relative="1" as="geometry">
            <mxPoint x="330" y="440" as="targetPoint" />
          </mxGeometry>
        </mxCell>
        <mxCell id="TZKJ0TVQ96JsH3nUPFEi-48" value="电话" style="ellipse;whiteSpace=wrap;html=1;" vertex="1" parent="1">
          <mxGeometry x="300" y="480" width="60" height="30" as="geometry" />
        </mxCell>
        <mxCell id="TZKJ0TVQ96JsH3nUPFEi-55" style="edgeStyle=none;rounded=0;orthogonalLoop=1;jettySize=auto;html=1;exitX=0.5;exitY=0;exitDx=0;exitDy=0;entryX=0.5;entryY=1;entryDx=0;entryDy=0;endArrow=none;endFill=0;" edge="1" parent="1" source="TZKJ0TVQ96JsH3nUPFEi-49" target="TZKJ0TVQ96JsH3nUPFEi-1">
          <mxGeometry relative="1" as="geometry" />
        </mxCell>
        <mxCell id="TZKJ0TVQ96JsH3nUPFEi-49" value="住址" style="ellipse;whiteSpace=wrap;html=1;" vertex="1" parent="1">
          <mxGeometry x="370" y="480" width="60" height="30" as="geometry" />
        </mxCell>
        <mxCell id="TZKJ0TVQ96JsH3nUPFEi-59" value="名称" style="ellipse;whiteSpace=wrap;html=1;" vertex="1" parent="1">
          <mxGeometry x="670" y="140" width="60" height="30" as="geometry" />
        </mxCell>
      </root>
    </mxGraphModel>
  </diagram>
</mxfile>
